# xmcd CD database file
#
# Track frame offsets:
#	150
#	16795
#	28755
#
# Disc length: 538 seconds
#
# Revision: 0
# Processed by: cddbd v1.5.1PL0 Copyright (c) Steve Scherf et al.
# Submitted via: CDex 1.51
#
DISCID=17021803
DTITLE=バンバンバザール - 新宿駅で待ってた（完全版）／コンビニエンスで待ってた
DYEAR=2000
DGENRE=Rock
TTITLE0=新宿駅で待ってた
TTITLE1=コンビニエンスで待ってた
TTITLE2=コンビニエンスで待ってた（Instrumental Version）
EXTD=YEAR: 2000
EXTT0=
EXTT1=
EXTT2=
PLAYORDER=
